<svg xmlns="http://www.w3.org/2000/svg" xmlns:xlink="http://www.w3.org/1999/xlink" width="90" height="24" viewBox="0 0 90 24">
  <defs>
    <clipPath id="clip-맞춤형_크기_1">
      <rect width="90" height="24"/>
    </clipPath>
  </defs>
  <g id="맞춤형_크기_1" data-name="맞춤형 크기 – 1" clip-path="url(#clip-맞춤형_크기_1)">
    <path id="패스_1" data-name="패스 1" d="M8.528,14.417a.25.25,0,0,1-.247.26H6.422a.234.234,0,0,1-.2-.091l-.013-.026L3.068,10.14v4.277a.25.25,0,0,1-.247.26H1.3a.261.261,0,0,1-.26-.26V8.073h1.2L1.066,3.9,1.04,3.8V3.77a.261.261,0,0,1,.26-.26H2.886a.25.25,0,0,1,.234.182L4.147,7.358,6.2,3.653a.259.259,0,0,1,.234-.143H8.164a.261.261,0,0,1,.26.26.38.38,0,0,1-.026.117l-.026.039L5.2,9.633l3.263,4.6.039.039A.467.467,0,0,1,8.528,14.417Zm8.684-9.971a4.836,4.836,0,0,0-3.055-.936H10.608a.261.261,0,0,0-.26.26V4.81l2,3.263h-2v6.344a.261.261,0,0,0,.26.26h1.521a.25.25,0,0,0,.247-.26v-4.3h1.807a4.837,4.837,0,0,0,3.029-.936,3.031,3.031,0,0,0,1.2-2.366A2.993,2.993,0,0,0,17.212,4.446Zm-4.03,1.092h.975c1.456,0,2.223.637,2.223,1.274,0,.546-.572,1.092-1.677,1.235ZM24.713,14.69A5.59,5.59,0,1,1,30.3,9.1,5.6,5.6,0,0,1,24.713,14.69Zm0-9.152A3.556,3.556,0,1,0,28.262,9.1,3.567,3.567,0,0,0,24.713,5.538ZM38.727,4.446a4.836,4.836,0,0,0-3.055-.936H32.123a.261.261,0,0,0-.26.26V4.81l2,3.263h-2v6.344a.261.261,0,0,0,.26.26h1.521a.25.25,0,0,0,.247-.26v-4.3H35.7a4.837,4.837,0,0,0,3.029-.936,3.031,3.031,0,0,0,1.2-2.366A2.993,2.993,0,0,0,38.727,4.446ZM34.7,5.538h.975c1.456,0,2.223.637,2.223,1.274,0,.546-.572,1.092-1.677,1.235Zm19.929-.273a.258.258,0,0,1-.247.26H50.193l2.119,2.548h.728c.182,0,.312.1.312.247V9.841a.284.284,0,0,1-.312.26h-4v4.3a.261.261,0,0,1-.247.273H47.268a.272.272,0,0,1-.26-.273V8.073H49.66l-2.652-3.2V3.77a.264.264,0,0,1,.26-.273h7.111a.262.262,0,0,1,.247.273Zm5.85,9.425a5.59,5.59,0,1,1,5.59-5.59A5.6,5.6,0,0,1,60.476,14.69Zm0-9.152A3.556,3.556,0,1,0,64.025,9.1,3.567,3.567,0,0,0,60.476,5.538ZM72.7,14.69a5.59,5.59,0,1,1,5.59-5.59A5.6,5.6,0,0,1,72.7,14.69Zm0-9.152A3.556,3.556,0,1,0,76.245,9.1,3.567,3.567,0,0,0,72.7,5.538Zm9.932,9.139a5.485,5.485,0,0,0,3.562-1.261,5.589,5.589,0,0,0-3.562-9.893H79.846a.258.258,0,0,0-.26.247v10.6a.284.284,0,0,0,.26.312Zm2.756-7.826a3.536,3.536,0,0,1-.494,4.992,3.428,3.428,0,0,1-2.262.806H81.614v-7.1h1.014A3.555,3.555,0,0,1,85.384,6.851Z" transform="translate(0.372 -3.497)" fill="#fff" opacity="0.8"/>
    <path id="패스_2" data-name="패스 2" d="M6.072,3.407a.187.187,0,0,1-.179.188H2.867L4.4,5.437h.526c.132,0,.226.075.226.179v1.1a.205.205,0,0,1-.226.188H2.03v3.111a.189.189,0,0,1-.179.2H.752a.2.2,0,0,1-.188-.2V5.437H2.482L.564,3.125v-.8a.191.191,0,0,1,.188-.2H5.894a.189.189,0,0,1,.179.2Zm4.23,6.815A4.042,4.042,0,1,1,14.344,6.18,4.048,4.048,0,0,1,10.3,10.222Zm0-6.618A2.571,2.571,0,1,0,12.869,6.18,2.58,2.58,0,0,0,10.3,3.6ZM20.934,9.921,19.439,7.27l-.207-.357-.047-.085a2.42,2.42,0,0,0,2.068-2.294,2.227,2.227,0,0,0-.818-1.7,3.221,3.221,0,0,0-2.124-.686H15.566a.187.187,0,0,0-.188.179v.743l.094.169v.009l1.25,2.2H15.378v4.587a.189.189,0,0,0,.188.188h1.1a.187.187,0,0,0,.179-.188V6.913h.705l.2.357,1.607,2.839.019.028a.178.178,0,0,0,.15.085h1.26a.183.183,0,0,0,.179-.2.14.14,0,0,0-.019-.085ZM18.208,5.1l-.837-1.485h.94c1.015,0,1.466.479,1.466.921,0,.376-.338.79-1.1.893a2.483,2.483,0,0,1-.273.019ZM32.12,3.407a.187.187,0,0,1-.179.188H28.914l1.532,1.842h.526c.132,0,.226.075.226.179v1.1a.205.205,0,0,1-.226.188h-2.9v3.111a.189.189,0,0,1-.179.2H26.8a.2.2,0,0,1-.188-.2V5.437h1.918L26.611,3.125v-.8a.191.191,0,0,1,.188-.2h5.142a.189.189,0,0,1,.179.2Zm4.23,6.815A4.042,4.042,0,1,1,40.392,6.18,4.048,4.048,0,0,1,36.35,10.222Zm0-6.618A2.571,2.571,0,1,0,38.916,6.18,2.58,2.58,0,0,0,36.35,3.6ZM46.981,9.921,45.487,7.27l-.207-.357-.047-.085A2.42,2.42,0,0,0,47.3,4.535a2.227,2.227,0,0,0-.818-1.7,3.221,3.221,0,0,0-2.124-.686H41.614a.187.187,0,0,0-.188.179v.743l.094.169v.009l1.25,2.2H41.426v4.587a.189.189,0,0,0,.188.188h1.1a.187.187,0,0,0,.179-.188V6.913h.7l.2.357L45.4,10.109l.019.028a.178.178,0,0,0,.15.085h1.26a.183.183,0,0,0,.179-.2.14.14,0,0,0-.019-.085ZM44.255,5.1l-.837-1.485h.94c1.015,0,1.466.479,1.466.921,0,.376-.338.79-1.1.893a2.483,2.483,0,0,1-.273.019Zm9.588,4.935a.187.187,0,0,1-.179.188H48.523a.189.189,0,0,1-.188-.188V2.326a.189.189,0,0,1,.188-.188h4.954a.189.189,0,0,1,.188.188v1.1a.181.181,0,0,1-.188.179H49.8V5.447h3.487a.181.181,0,0,1,.188.179v1.1a.189.189,0,0,1-.188.188H49.8V8.746h3.863a.187.187,0,0,1,.179.188Zm4.164-6.439V8.737h1.231a.215.215,0,0,1,.235.188v1.1a.215.215,0,0,1-.235.188H55.253a.189.189,0,0,1-.188-.188v-1.1a.189.189,0,0,1,.188-.188h1.278V3.595H55.253a.181.181,0,0,1-.188-.179v-1.1a.189.189,0,0,1,.188-.188h3.986a.215.215,0,0,1,.235.188v1.1c0,.1-.1.179-.235.179ZM66.843,5.5a.134.134,0,0,0-.113-.056H64.155a.181.181,0,0,0-.179.188v1.1a.173.173,0,0,0,.179.179h1.288V8.3a2.571,2.571,0,1,1-.056-4.258.184.184,0,0,0,.207-.009l.912-.7a.183.183,0,0,0,.028-.263c0-.009-.009-.019-.019-.028l-.028-.019a4.036,4.036,0,1,0-1.043,6.928,4.275,4.275,0,0,0,.987-.555,5.474,5.474,0,0,0,.423-.376V9.009a.158.158,0,0,0,.056-.132V5.635A.152.152,0,0,0,66.843,5.5Zm6.89,4.766L69.692,5.86v4.164a.181.181,0,0,1-.179.188h-1.1a.189.189,0,0,1-.188-.188V2.082L72.267,6.49V2.326a.187.187,0,0,1,.179-.188h1.109a.187.187,0,0,1,.179.188Zm6.824-.235a.187.187,0,0,1-.179.188H75.238a.189.189,0,0,1-.188-.188V2.326a.189.189,0,0,1,.188-.188h4.954a.189.189,0,0,1,.188.188v1.1a.181.181,0,0,1-.188.179H76.516V5.447H80a.181.181,0,0,1,.188.179v1.1A.189.189,0,0,1,80,6.913H76.516V8.746h3.863a.187.187,0,0,1,.179.188Zm6.5-.113L85.559,7.27l-.207-.357-.047-.085a2.42,2.42,0,0,0,2.068-2.294,2.227,2.227,0,0,0-.818-1.7,3.221,3.221,0,0,0-2.124-.686H81.686a.187.187,0,0,0-.188.179v.743l.094.169v.009l1.25,2.2H81.5v4.587a.189.189,0,0,0,.188.188h1.1a.187.187,0,0,0,.179-.188V6.913h.705l.2.357,1.607,2.839.019.028a.178.178,0,0,0,.15.085H86.9a.183.183,0,0,0,.179-.2.14.14,0,0,0-.019-.085ZM84.327,5.1l-.837-1.485h.94c1.015,0,1.466.479,1.466.921,0,.376-.338.79-1.1.893a2.483,2.483,0,0,1-.273.019Z" transform="translate(1.032 13.731)" fill="#fff" opacity="0.3"/>
  </g>
</svg>
