<svg xmlns="http://www.w3.org/2000/svg" xmlns:xlink="http://www.w3.org/1999/xlink" width="450" height="60" viewBox="0 0 450 60">
  <defs>
    <clipPath id="clip-맞춤형_크기_1">
      <rect width="450" height="60"/>
    </clipPath>
  </defs>
  <g id="맞춤형_크기_1" data-name="맞춤형 크기 – 1" clip-path="url(#clip-맞춤형_크기_1)">
    <g id="shuffle" transform="translate(39.236 22.109)">
      <g id="그룹_5" data-name="그룹 5" transform="translate(0 0)">
        <path id="패스_3" data-name="패스 3" d="M7,284.3l.54.87a.442.442,0,1,1-.752.464l-.54-.87a4.661,4.661,0,0,0-3.834-2.485H.439a.442.442,0,0,1,0-.885H2.413A5.535,5.535,0,0,1,7,284.3Z" transform="translate(0 -279.262)" fill="#fff"/>
        <path id="패스_4" data-name="패스 4" d="M261.341,29.628l-2.136,2.14a.44.44,0,1,1-.622-.622l1.388-1.388h-2.047a5.515,5.515,0,0,1-4.582-2.9l-.331-.536a.44.44,0,0,1,.144-.608.446.446,0,0,1,.23-.065.441.441,0,0,1,.374.209l.331.536a4.657,4.657,0,0,0,3.834,2.482h2.043l-1.388-1.388a.441.441,0,0,1,.626-.622l2.14,2.14A.442.442,0,0,1,261.341,29.628Zm-.939-.317v.014l.007-.007Z" transform="translate(-243.847 -16.115)" fill="#fff"/>
        <path id="패스_5" data-name="패스 5" d="M14.732,85.28a.443.443,0,0,1,.626,0l2.14,2.14a.439.439,0,0,1,0,.622l-2.14,2.136a.44.44,0,0,1-.622-.622l1.388-1.388H14.143a4.666,4.666,0,0,0-3.834,2.485L7.064,95.894a5.507,5.507,0,0,1-4.582,2.9H.439a.442.442,0,0,1,0-.885H2.478a4.669,4.669,0,0,0,3.834-2.482l3.244-5.241a5.511,5.511,0,0,1,4.582-2.9h1.982l-1.388-1.388A.436.436,0,0,1,14.732,85.28Zm1.824,2.457.007-.007-.007-.007v.014Z" transform="translate(0 -85.15)" fill="#fff"/>
      </g>
    </g>
    <g id="replay" transform="translate(369.526 20.675)">
      <g id="그룹_7" data-name="그룹 7" transform="translate(28.63)">
        <g id="그룹_6" data-name="그룹 6" transform="translate(0)">
          <path id="패스_6" data-name="패스 6" d="M45.172,0l-.534.534,2.6,2.6H36.219a3.789,3.789,0,0,0-3.785,3.785V9.269h.755V6.916a3.034,3.034,0,0,1,3.03-3.03H47.235l-2.6,2.6.534.534L48.68,3.508Z" transform="translate(-32.434)" fill="#fff"/>
        </g>
      </g>
      <g id="그룹_9" data-name="그룹 9" transform="translate(28.474 9.38)">
        <g id="그룹_8" data-name="그룹 8" transform="translate(0)">
          <path id="패스_7" data-name="패스 7" d="M43.965,237.714v2.353a3.034,3.034,0,0,1-3.03,3.03H29.919l2.6-2.6-.534-.534-3.508,3.508,3.508,3.508.534-.534-2.6-2.6H40.935a3.789,3.789,0,0,0,3.785-3.785v-2.353h-.755Z" transform="translate(-28.474 -237.714)" fill="#fff"/>
        </g>
      </g>
    </g>
    <g id="LeftArrow" transform="translate(435.325 51.842) rotate(180)">
      <path id="다각형_1" data-name="다각형 1" d="M9.293,2.793a2,2,0,0,1,3.413,0L20.14,14.957A2,2,0,0,1,18.434,18H3.566A2,2,0,0,1,1.86,14.957Z" transform="translate(317.325 10.842) rotate(90)" fill="#fff"/>
      <rect id="사각형_1" data-name="사각형 1" width="3" height="20" rx="1.5" transform="translate(315.325 11.842)" fill="#fff"/>
    </g>
    <g id="RightArrow" transform="translate(14.675 8.158)">
      <path id="다각형_1-2" data-name="다각형 1" d="M9.293,2.793a2,2,0,0,1,3.413,0L20.14,14.957A2,2,0,0,1,18.434,18H3.566A2,2,0,0,1,1.86,14.957Z" transform="translate(317.325 10.842) rotate(90)" fill="#fff"/>
      <rect id="사각형_1-2" data-name="사각형 1" width="3" height="20" rx="1.5" transform="translate(315.325 11.842)" fill="#fff"/>
    </g>
    <g id="구성_요소_1_1" data-name="구성 요소 1 – 1" transform="translate(200 5)">
      <circle id="타원_1" data-name="타원 1" cx="25" cy="25" r="25" fill="#fff"/>
    </g>
  </g>
</svg>
